
        <svg xmlns="http://www.w3.org/2000/svg" xmlns:xlink="http://www.w3.org/1999/xlink" version="1.1" width="2132.18997094185" 
        height="3193.8354519038044" viewBox="0 0 2132.18997094185 3193.8354519038044">
			
			<g transform="scale(9.691772595190228) translate(10, 10)">
				<defs id="SvgjsDefs1590"></defs><g id="SvgjsG1591" featureKey="dZL0lc-0" transform="matrix(1.8979081921320566,0,0,1.8979081921320566,-41.77758566598111,-55.69948301428415)" fill="#111111"><g xmlns="http://www.w3.org/2000/svg"><path d="M110.3,59.8c-0.3-0.2-0.6-0.2-0.9-0.1l-11.8,3.7h-3.1v-5.9c0-3-2.5-5.5-5.5-5.5h-0.1c1.8-1.1,3.2-2.7,4.2-4.6   c1.5-2.9,1.8-6.3,0.8-9.4c-2-6.5-9-10.1-15.5-8.1c-3,0.9-5.4,2.9-6.9,5.5c0,0-0.1,0-0.1,0.1c-1.4,1.4-3.3,2.3-5.3,2.4   c-2,0.1-4-0.5-5.5-1.7c0,0-0.1,0-0.1-0.1c-2.6-2.2-6.2-3.1-9.7-2c-5.4,1.7-8.3,7.4-6.7,12.8c0.7,2.2,2.1,4,3.9,5.3   c-2.5,0.5-4.3,2.8-4.3,5.4v5.9h-3.3c-0.6,0-1,0.4-1,1V74c0,0.6,0.4,1,1,1h3.3v5.9c0,3,2.5,5.5,5.5,5.5h6.4v3.3c0,0.6,0.4,1,1,1h6.8   c-0.1,0.2-0.2,0.4-0.2,0.6l-7,25.1c-0.3,0.9-0.1,1.8,0.3,2.6c0.5,0.8,1.2,1.4,2.1,1.6c0.3,0.1,0.6,0.1,0.9,0.1   c0.6,0,1.2-0.2,1.7-0.4c0.8-0.5,1.4-1.2,1.6-2.1l6.1-22l6.1,22c0.2,0.9,0.8,1.6,1.6,2.1c0.5,0.3,1.1,0.4,1.7,0.4   c0.3,0,0.6,0,0.9-0.1c0.9-0.2,1.6-0.8,2.1-1.6c0.5-0.8,0.6-1.7,0.3-2.6l-7-25.1c-0.1-0.2-0.1-0.4-0.2-0.6h6.8c0.6,0,1-0.4,1-1v-3.3   h6.4c3,0,5.5-2.5,5.5-5.5V75h3.1l11.8,3.7c0.1,0,0.2,0,0.3,0c0.2,0,0.4-0.1,0.6-0.2c0.3-0.2,0.4-0.5,0.4-0.8V60.6   C110.7,60.3,110.5,60,110.3,59.8z M79,31.7c1-0.3,2.1-0.5,3.1-0.5c4.4,0,8.5,2.8,9.9,7.2c0.8,2.6,0.6,5.4-0.7,7.9s-3.4,4.3-6.1,5.1   c-1,0.3-2,0.5-2.9,0.5H82c-4.4,0-8.4-2.9-9.8-7.2C70.5,39.2,73.5,33.4,79,31.7z M65.5,39.8c0.2,0,0.5,0,0.7,0   c1.3-0.1,2.6-0.5,3.8-1c-0.5,2.1-0.5,4.4,0.2,6.6c0.9,2.8,2.7,5.1,5.1,6.6H59.8c3.4-2.5,5-7,3.7-11.2c0,0,0,0,0,0   c-0.1-0.4-0.3-0.8-0.5-1.2C63.9,39.6,64.7,39.8,65.5,39.8z M46,46.2c-1.4-4.3,1-8.9,5.4-10.3c0.8-0.3,1.6-0.4,2.5-0.4   c3.5,0,6.7,2.2,7.8,5.7c1.4,4.3-1,8.9-5.4,10.3C52,52.9,47.3,50.5,46,46.2z M41.3,73v-7.6h2.3V73H41.3z M68,92.6l-7,25.1   c-0.1,0.4-0.4,0.7-0.7,0.9c-0.3,0.2-0.7,0.2-1.1,0.1c-0.4-0.1-0.7-0.4-0.9-0.7c-0.2-0.3-0.2-0.7-0.1-1.1l7-25.1   c0.2-0.6,0.8-1.1,1.4-1.1c0.1,0,0.3,0,0.4,0.1C67.7,91,68.2,91.8,68,92.6z M79.9,116.9c0.1,0.4,0.1,0.8-0.1,1.1   c-0.2,0.3-0.5,0.6-0.9,0.7c-0.4,0.1-0.8,0.1-1.1-0.1c-0.3-0.2-0.6-0.5-0.7-0.9l-7-25.1c-0.2-0.8,0.2-1.6,1-1.8   c0.1,0,0.3-0.1,0.4-0.1c0.6,0,1.2,0.4,1.4,1.1L79.9,116.9z M80.5,88.7H57.6v-2.3h22.9V88.7z M92.4,80.9c0,1.9-1.6,3.5-3.5,3.5h-7.4   H56.6h-7.4c-1.9,0-3.5-1.6-3.5-3.5V74v-9.6v-6.9c0-1.9,1.6-3.5,3.5-3.5h32.8c0.1,0,0.1,0,0.2,0c0.1,0,0.1,0,0.2,0h6.7   c1.9,0,3.5,1.6,3.5,3.5v6.9V74V80.9z M94.4,65.4h2.3V73h-2.3V65.4z M108.7,76.4l-10-3.2v-8.1l10-3.2V76.4z"></path><path d="M88.1,57.7H74.9c-0.6,0-1,0.4-1,1s0.4,1,1,1h13.2c0.6,0,1-0.4,1-1S88.6,57.7,88.1,57.7z"></path><path d="M88.1,61.4H74.9c-0.6,0-1,0.4-1,1s0.4,1,1,1h13.2c0.6,0,1-0.4,1-1S88.6,61.4,88.1,61.4z"></path><path d="M53.8,48.2c0.4,0,0.9-0.1,1.3-0.2c0,0,0,0,0,0c2.3-0.7,3.7-3.3,2.9-5.6c-0.4-1.1-1.1-2.1-2.2-2.6c-1.1-0.6-2.3-0.7-3.4-0.3   c-1.1,0.4-2.1,1.1-2.6,2.2c-0.6,1.1-0.7,2.3-0.3,3.4C50.1,47,51.9,48.2,53.8,48.2z M51.6,42.6c0.3-0.6,0.8-1,1.4-1.2   c0.2-0.1,0.5-0.1,0.7-0.1c0.4,0,0.8,0.1,1.1,0.3c0.6,0.3,1,0.8,1.2,1.4c0.4,1.3-0.3,2.7-1.6,3.1c-1.3,0.4-2.7-0.3-3.1-1.6   C51.3,43.8,51.3,43.2,51.6,42.6z"></path><path d="M80,45.5c0.6,0.3,1.4,0.5,2.1,0.5c0.5,0,0.9-0.1,1.3-0.2c1.1-0.4,2.1-1.1,2.6-2.2c0.6-1.1,0.7-2.3,0.3-3.4   c-0.4-1.1-1.1-2.1-2.2-2.6c-1.1-0.6-2.3-0.7-3.4-0.3c-1.1,0.4-2.1,1.1-2.6,2.2c-0.6,1.1-0.7,2.3-0.3,3.4C78.2,44,78.9,45,80,45.5z    M79.9,40.4c0.3-0.6,0.8-1,1.4-1.2c0.2-0.1,0.5-0.1,0.7-0.1c0.4,0,0.8,0.1,1.1,0.3c0.6,0.3,1,0.8,1.2,1.4c0.2,0.6,0.1,1.3-0.2,1.9   c-0.3,0.6-0.8,1-1.4,1.2c-0.6,0.2-1.3,0.1-1.9-0.2c-0.6-0.3-1-0.8-1.2-1.4C79.5,41.7,79.6,41,79.9,40.4z"></path><path d="M69,57.6H50.6c-0.6,0-1,0.4-1,1v10.5c0,0.6,0.4,1,1,1H69c0.6,0,1-0.4,1-1V58.6C70,58.1,69.6,57.6,69,57.6z M68,68.2H51.6   v-8.5H68V68.2z"></path><circle cx="54.5" cy="77.1" r="2.4"></circle><circle cx="65.1" cy="77.1" r="2.4"></circle></g></g><g id="SvgjsG1592" featureKey="u029BI-0" transform="matrix(2.0210186120684903,0,0,2.0210186120684903,-2.8294260087110477,181.23767422192086)" fill="#111111"><path d="M1.4 9.02 q0.58 -0.24 1.21 -0.55 t1.23 -0.68 t1.15 -0.78 t0.99 -0.87 l2.08 0 l0 13.86 l-2.98 0 l0 -9.98 q-0.6 0.4 -1.34 0.73 t-1.44 0.57 z M21.96 16.14 q0 0.9 -0.31 1.65 t-0.93 1.31 t-1.55 0.87 t-2.15 0.31 q-1.4 0 -2.33 -0.39 t-1.5 -0.97 t-0.81 -1.27 t-0.24 -1.27 q0 -0.6 0.16 -1.1 t0.44 -0.91 t0.63 -0.75 t0.75 -0.64 q-0.86 -0.7 -1.27 -1.38 t-0.41 -1.74 q0 -0.8 0.33 -1.54 t0.93 -1.29 t1.45 -0.88 t1.89 -0.33 q1.22 0 2.09 0.35 t1.43 0.89 t0.81 1.21 t0.25 1.33 q0 0.96 -0.51 1.79 t-1.27 1.31 q1.14 0.74 1.63 1.55 t0.49 1.89 z M15.04 16.259999999999998 q0 0.24 0.11 0.53 t0.35 0.53 t0.62 0.4 t0.92 0.16 q1.04 0 1.52 -0.5 t0.48 -1.12 q0 -0.46 -0.21 -0.82 t-0.57 -0.63 t-0.85 -0.48 t-1.05 -0.39 q-0.56 0.42 -0.94 0.98 t-0.38 1.34 z M18.74 9.68 q0 -0.22 -0.09 -0.47 t-0.3 -0.47 t-0.53 -0.37 t-0.78 -0.15 q-0.44 0 -0.76 0.14 t-0.53 0.37 t-0.31 0.49 t-0.1 0.5 q0 0.64 0.47 1.2 t1.61 0.96 q0.64 -0.4 0.98 -0.92 t0.34 -1.28 z M33.18 5.98 q3.12 0 4.78 1.11 t1.66 3.45 q0 1.46 -0.67 2.37 t-1.93 1.43 q0.42 0.52 0.88 1.19 t0.91 1.4 t0.87 1.52 t0.78 1.55 l-3.5 0 q-0.38 -0.68 -0.77 -1.38 t-0.8 -1.36 t-0.81 -1.25 t-0.8 -1.07 l-1.54 0 l0 5.06 l-3.12 0 l0 -13.66 q1.02 -0.2 2.11 -0.28 t1.95 -0.08 z M33.36 8.64 q-0.34 0 -0.61 0.02 t-0.51 0.04 l0 3.76 l0.88 0 q1.76 0 2.52 -0.44 t0.76 -1.5 q0 -1.02 -0.77 -1.45 t-2.27 -0.43 z M51.74 20 q-0.22 -0.72 -0.49 -1.48 t-0.53 -1.52 l-5.4 0 q-0.26 0.76 -0.53 1.52 t-0.49 1.48 l-3.24 0 q0.78 -2.24 1.48 -4.14 t1.37 -3.58 t1.32 -3.19 t1.35 -2.95 l2.98 0 q0.68 1.44 1.34 2.95 t1.33 3.19 t1.37 3.58 t1.48 4.14 l-3.34 0 z M48 9.28 q-0.1 0.3 -0.3 0.82 t-0.46 1.2 t-0.57 1.5 t-0.63 1.72 l3.94 0 q-0.32 -0.9 -0.62 -1.72 t-0.57 -1.5 t-0.47 -1.2 t-0.32 -0.82 z M61.5 20.18 q-1.14 0 -2.27 -0.07 t-2.35 -0.33 l0 -13.44 q0.96 -0.18 2.1 -0.27 t2.12 -0.09 q1.32 0 2.43 0.19 t1.91 0.65 t1.25 1.21 t0.45 1.85 q0 1.66 -1.6 2.62 q1.32 0.5 1.8 1.36 t0.48 1.94 q0 2.18 -1.59 3.28 t-4.73 1.1 z M59.92 13.96 l0 3.58 q0.34 0.04 0.74 0.06 t0.88 0.02 q1.4 0 2.26 -0.4 t0.86 -1.48 q0 -0.96 -0.72 -1.37 t-2.06 -0.41 l-1.96 0 z M59.92 11.58 l1.52 0 q1.44 0 2.06 -0.37 t0.62 -1.19 q0 -0.84 -0.64 -1.18 t-1.88 -0.34 q-0.4 0 -0.86 0.01 t-0.82 0.05 l0 3.02 z M74.94 20.18 q-1.14 0 -2.27 -0.07 t-2.35 -0.33 l0 -13.44 q0.96 -0.18 2.1 -0.27 t2.12 -0.09 q1.32 0 2.43 0.19 t1.91 0.65 t1.25 1.21 t0.45 1.85 q0 1.66 -1.6 2.62 q1.32 0.5 1.8 1.36 t0.48 1.94 q0 2.18 -1.59 3.28 t-4.73 1.1 z M73.36 13.96 l0 3.58 q0.34 0.04 0.74 0.06 t0.88 0.02 q1.4 0 2.26 -0.4 t0.86 -1.48 q0 -0.96 -0.72 -1.37 t-2.06 -0.41 l-1.96 0 z M73.36 11.58 l1.52 0 q1.44 0 2.06 -0.37 t0.62 -1.19 q0 -0.84 -0.64 -1.18 t-1.88 -0.34 q-0.4 0 -0.86 0.01 t-0.82 0.05 l0 3.02 z M83.75999999999999 6.140000000000001 l3.12 0 l0 13.86 l-3.12 0 l0 -13.86 z M100.35999999999999 6.140000000000001 l0 2.66 l-4.18 0 l0 11.2 l-3.12 0 l0 -11.2 l-4.18 0 l0 -2.66 l11.48 0 z"></path></g><g id="SvgjsG1593" featureKey="u029BI-1" transform="matrix(3.556188384217678,0,0,3.556188384217678,-5.689901499534423,211.30298299339293)" fill="#111111"><path d="M1.6 20 l0 -13.86 l9.28 0 l0 2.62 l-6.16 0 l0 2.9 l5.48 0 l0 2.62 l-5.48 0 l0 5.72 l-3.12 0 z M13.08 6.140000000000001 l3.12 0 l0 13.86 l-3.12 0 l0 -13.86 z M28.66 17.32 l0 2.68 l-9.26 0 l0 -13.86 l3.12 0 l0 11.18 l6.14 0 z M34.34 6.140000000000001 q0.36 0.66 0.83 1.63 t0.98 2.1 t1.01 2.31 t0.94 2.22 q0.44 -1.04 0.94 -2.22 t1.01 -2.31 t0.98 -2.1 t0.83 -1.63 l2.84 0 q0.2 1.38 0.37 3.09 t0.3 3.56 t0.24 3.71 t0.19 3.5 l-3.04 0 q-0.06 -2.02 -0.16 -4.4 t-0.3 -4.8 q-0.36 0.84 -0.8 1.86 t-0.87 2.04 t-0.83 1.95 t-0.68 1.59 l-2.18 0 q-0.28 -0.66 -0.68 -1.59 t-0.83 -1.95 t-0.87 -2.04 t-0.8 -1.86 q-0.2 2.42 -0.3 4.8 t-0.16 4.4 l-3.04 0 q0.08 -1.64 0.19 -3.5 t0.24 -3.71 t0.3 -3.56 t0.37 -3.09 l2.98 0 z M52.38 17.62 q0.66 0 1.09 -0.11 t0.69 -0.3 t0.36 -0.45 t0.1 -0.58 q0 -0.68 -0.64 -1.13 t-2.2 -0.97 q-0.68 -0.24 -1.36 -0.55 t-1.22 -0.78 t-0.88 -1.14 t-0.34 -1.63 t0.36 -1.73 t1.02 -1.31 t1.6 -0.83 t2.12 -0.29 q1.4 0 2.42 0.3 t1.68 0.66 l-0.9 2.46 q-0.58 -0.3 -1.29 -0.53 t-1.71 -0.23 q-1.12 0 -1.61 0.31 t-0.49 0.95 q0 0.38 0.18 0.64 t0.51 0.47 t0.76 0.38 t0.95 0.35 q1.08 0.4 1.88 0.79 t1.33 0.91 t0.79 1.22 t0.26 1.7 q0 1.94 -1.36 3.01 t-4.1 1.07 q-0.92 0 -1.66 -0.11 t-1.31 -0.27 t-0.98 -0.34 t-0.69 -0.34 l0.88 -2.48 q0.62 0.34 1.53 0.61 t2.23 0.27 z"></path></g><g id="SvgjsG1594" featureKey="cvDMLi-0" transform="matrix(0.3479301247411468,0,0,0.3479301247411468,-0.5775569859278786,302.4760660138163)" fill="#111111"><path d="M2.56 20.3 c-0.25334 0 -0.46668 -0.08666 -0.64002 -0.26 s-0.26 -0.38 -0.26 -0.62 l0 -14.02 c0 -0.24 0.08666 -0.44666 0.26 -0.62 s0.38668 -0.26 0.64002 -0.26 c0.24 0 0.44666 0.08666 0.62 0.26 s0.26 0.38 0.26 0.62 l0 14.02 c0 0.24 -0.08666 0.44666 -0.26 0.62 s-0.38 0.26 -0.62 0.26 z M29.332 20.3 c-0.33334 0 -0.58668 -0.14 -0.76002 -0.42 l-7.22 -11.44 l0 10.98 c0 0.24 -0.08334 0.44666 -0.25 0.62 s-0.37666 0.26 -0.63 0.26 c-0.24 0 -0.44666 -0.08666 -0.62 -0.26 s-0.26 -0.38 -0.26 -0.62 l0 -14.02 c0 -0.24 0.08666 -0.44666 0.26 -0.62 s0.38 -0.26 0.62 -0.26 c0.33334 0 0.58668 0.13334 0.76002 0.4 l7.22 11.44 l0 -10.96 c0 -0.24 0.08334 -0.44666 0.25 -0.62 s0.37666 -0.26 0.63 -0.26 c0.24 0 0.44666 0.08666 0.62 0.26 s0.26 0.38 0.26 0.62 l0 14.02 c0 0.24 -0.08666 0.44666 -0.26 0.62 s-0.38 0.26 -0.62 0.26 z M52.164 20.3 l-4.92 -0.000039062 c-0.16 0 -0.31334 -0.04666 -0.46 -0.14 s-0.25332 -0.21334 -0.31998 -0.36 c-0.12 -0.21334 -0.13334 -0.45334 -0.04 -0.72 l0 -13.68 c0 -0.24 0.08666 -0.44666 0.26 -0.62 s0.38668 -0.26 0.64002 -0.26 l4.82 0 c1.0533 0 2.0134 0.22666 2.88 0.68 s1.6067 1.0467 2.22 1.78 s1.0867 1.5667 1.42 2.5 s0.5 1.88 0.5 2.84 c0 1.1867 -0.20334 2.27 -0.61 3.25 s-0.94 1.82 -1.6 2.52 s-1.41 1.2433 -2.25 1.63 s-1.6867 0.58 -2.54 0.58 z M52.144 6.279999999999999 l-3.94 -0.000078126 l0 12.26 l3.96 0 c0.76 0 1.4567 -0.18334 2.09 -0.55 s1.1833 -0.84332 1.65 -1.43 s0.83 -1.2533 1.09 -2 s0.39 -1.4933 0.39 -2.24 c0 -0.76 -0.12666 -1.5033 -0.38 -2.23 s-0.61 -1.3733 -1.07 -1.94 s-1.0133 -1.02 -1.66 -1.36 s-1.3567 -0.51 -2.13 -0.51 z M82.656 20.3 l-6.88 -0.000019531 c-0.25334 0 -0.46668 -0.08666 -0.64002 -0.26 s-0.26 -0.38 -0.26 -0.62 l0 -0.04 l0 -0.04 l0 -13.94 c0 -0.24 0.08666 -0.44666 0.26 -0.62 s0.38668 -0.26 0.64002 -0.26 l6.88 0 c0.25334 0 0.46668 0.08666 0.64002 0.26 s0.26 0.38 0.26 0.62 c0 0.25334 -0.08666 0.46334 -0.26 0.63 s-0.38668 0.25 -0.64002 0.25 l-6 0 l0 5.1 l5.06 0 c0.24 0 0.44666 0.08334 0.62 0.25 s0.26 0.37666 0.26 0.63 c0 0.24 -0.08666 0.44666 -0.26 0.62 s-0.38 0.26 -0.62 0.26 l-5.06 0 l0 5.38 l6 0 c0.25334 0 0.46668 0.08666 0.64002 0.26 s0.26 0.38668 0.26 0.64002 c0 0.24 -0.08666 0.44666 -0.26 0.62 s-0.38668 0.26 -0.64002 0.26 z M102.968 13.36 l-2.64 -0.000039062 l0 6.06 c0 0.24 -0.08666 0.44666 -0.26 0.62 s-0.38 0.26 -0.62 0.26 c-0.25334 0 -0.46668 -0.08666 -0.64002 -0.26 s-0.26 -0.38 -0.26 -0.62 l0 -14.02 c0 -0.24 0.08666 -0.44666 0.26 -0.62 s0.38668 -0.26 0.64002 -0.26 l3.52 0 c0.61334 0 1.19 0.11666 1.73 0.35 s1.01 0.55 1.41 0.95 s0.71666 0.86666 0.95 1.4 s0.35 1.1067 0.35 1.72 s-0.11666 1.1867 -0.35 1.72 s-0.55 1 -0.95 1.4 s-0.87 0.71666 -1.41 0.95 s-1.1167 0.35 -1.73 0.35 z M102.968 6.279999999999999 l-2.64 0 l0 5.3 l2.64 0 c0.36 0 0.70334 -0.07 1.03 -0.21 s0.61 -0.33 0.85 -0.57 s0.43 -0.52 0.57 -0.84 s0.21 -0.66 0.21 -1.02 s-0.07 -0.70334 -0.21 -1.03 s-0.33 -0.61 -0.57 -0.85 s-0.52334 -0.43 -0.85 -0.57 s-0.67 -0.21 -1.03 -0.21 z M130.02 20.3 l-6.88 -0.000019531 c-0.25334 0 -0.46668 -0.08666 -0.64002 -0.26 s-0.26 -0.38 -0.26 -0.62 l0 -0.04 l0 -0.04 l0 -13.94 c0 -0.24 0.08666 -0.44666 0.26 -0.62 s0.38668 -0.26 0.64002 -0.26 l6.88 0 c0.25334 0 0.46668 0.08666 0.64002 0.26 s0.26 0.38 0.26 0.62 c0 0.25334 -0.08666 0.46334 -0.26 0.63 s-0.38668 0.25 -0.64002 0.25 l-6 0 l0 5.1 l5.06 0 c0.24 0 0.44666 0.08334 0.62 0.25 s0.26 0.37666 0.26 0.63 c0 0.24 -0.08666 0.44666 -0.26 0.62 s-0.38 0.26 -0.62 0.26 l-5.06 0 l0 5.38 l6 0 c0.25334 0 0.46668 0.08666 0.64002 0.26 s0.26 0.38668 0.26 0.64002 c0 0.24 -0.08666 0.44666 -0.26 0.62 s-0.38668 0.26 -0.64002 0.26 z M155.65200000000002 20.3 c-0.33334 0 -0.58668 -0.14 -0.76002 -0.42 l-7.22 -11.44 l0 10.98 c0 0.24 -0.08334 0.44666 -0.25 0.62 s-0.37666 0.26 -0.63 0.26 c-0.24 0 -0.44666 -0.08666 -0.62 -0.26 s-0.26 -0.38 -0.26 -0.62 l0 -14.02 c0 -0.24 0.08666 -0.44666 0.26 -0.62 s0.38 -0.26 0.62 -0.26 c0.33334 0 0.58668 0.13334 0.76002 0.4 l7.22 11.44 l0 -10.96 c0 -0.24 0.08334 -0.44666 0.25 -0.62 s0.37666 -0.26 0.63 -0.26 c0.24 0 0.44666 0.08666 0.62 0.26 s0.26 0.38 0.26 0.62 l0 14.02 c0 0.24 -0.08666 0.44666 -0.26 0.62 s-0.38 0.26 -0.62 0.26 z M180.284 6.279999999999999 l-3.24 0 l0 13.14 c0 0.24 -0.08666 0.44666 -0.26 0.62 s-0.38 0.26 -0.62 0.26 c-0.25334 0 -0.46668 -0.08666 -0.64002 -0.26 s-0.26 -0.38 -0.26 -0.62 l0 -13.14 l-3.24 0 c-0.24 0 -0.44666 -0.08334 -0.62 -0.25 s-0.26 -0.37666 -0.26 -0.63 c0 -0.24 0.08666 -0.44666 0.26 -0.62 s0.38 -0.26 0.62 -0.26 l8.26 0 c0.24 0 0.44666 0.08666 0.62 0.26 s0.26 0.38 0.26 0.62 c0 0.25334 -0.08666 0.46334 -0.26 0.63 s-0.38 0.25 -0.62 0.25 z M223.408 6.279999999999999 l-6 0 l0 5.18 l5.06 0 c0.24 0 0.44666 0.08666 0.62 0.26 s0.26 0.38 0.26 0.62 c0 0.25334 -0.08666 0.46334 -0.26 0.63 s-0.38 0.25 -0.62 0.25 l-5.06 0 l0 6.2 c0 0.24 -0.08666 0.44666 -0.26 0.62 s-0.38 0.26 -0.62 0.26 c-0.25334 0 -0.46668 -0.08666 -0.64002 -0.26 s-0.26 -0.38 -0.26 -0.62 l0 -14.02 c0 -0.24 0.08666 -0.44666 0.26 -0.62 s0.38668 -0.26 0.64002 -0.26 l6.88 0 c0.25334 0 0.46668 0.08666 0.64002 0.26 s0.26 0.38 0.26 0.62 c0 0.25334 -0.08666 0.46334 -0.26 0.63 s-0.38668 0.25 -0.64002 0.25 z M239.6 20.3 c-0.25334 0 -0.46668 -0.08666 -0.64002 -0.26 s-0.26 -0.38 -0.26 -0.62 l0 -14.02 c0 -0.24 0.08666 -0.44666 0.26 -0.62 s0.38668 -0.26 0.64002 -0.26 c0.24 0 0.44666 0.08666 0.62 0.26 s0.26 0.38 0.26 0.62 l0 14.02 c0 0.24 -0.08666 0.44666 -0.26 0.62 s-0.38 0.26 -0.62 0.26 z M262.852 20.3 l-5.34 0 c-0.24 0 -0.44666 -0.08666 -0.62 -0.26 s-0.26 -0.38 -0.26 -0.62 l0 -14.02 c0 -0.25334 0.08666 -0.46334 0.26 -0.63 s0.38 -0.25 0.62 -0.25 c0.25334 0 0.46334 0.08334 0.63 0.25 s0.25 0.37666 0.25 0.63 l0 13.14 l4.46 0 c0.25334 0 0.46668 0.08666 0.64002 0.26 s0.26 0.38 0.26 0.62 s-0.08666 0.44666 -0.26 0.62 s-0.38668 0.26 -0.64002 0.26 z M292.864 20.3 c-0.24 0 -0.44666 -0.08666 -0.62 -0.26 s-0.26 -0.38 -0.26 -0.62 l0 -10.42 l-5.24 10.8 c-0.08 0.14666 -0.19334 0.26666 -0.34 0.36 s-0.3 0.14 -0.46 0.14 s-0.31334 -0.04666 -0.46 -0.14 s-0.26 -0.21334 -0.34 -0.36 l-5.24 -10.8 l0 10.42 c0 0.24 -0.08334 0.44666 -0.25 0.62 s-0.37666 0.26 -0.63 0.26 c-0.24 0 -0.44666 -0.08666 -0.62 -0.26 s-0.26 -0.38 -0.26 -0.62 l0 -14.02 c0 -0.24 0.08666 -0.44666 0.26 -0.62 s0.38 -0.26 0.62 -0.26 c0.36 0 0.62666 0.16 0.8 0.48 l6.12 12.42 l6.12 -12.42 c0.17334 -0.32 0.44 -0.48 0.8 -0.48 c0.24 0 0.44666 0.08666 0.62 0.26 s0.26 0.38 0.26 0.62 l0 14.02 c0 0.24 -0.08666 0.44666 -0.26 0.62 s-0.38 0.26 -0.62 0.26 z M313.876 20.3 c-0.61334 0 -1.1867 -0.11668 -1.72 -0.35002 s-1 -0.55 -1.4 -0.95 s-0.71666 -0.86666 -0.95 -1.4 s-0.35 -1.1067 -0.35 -1.72 c0 -0.25334 0.08666 -0.46668 0.26 -0.64002 s0.38668 -0.26 0.64002 -0.26 c0.24 0 0.44666 0.08666 0.62 0.26 s0.26 0.38668 0.26 0.64002 c0 0.36 0.07 0.7 0.21 1.02 s0.33 0.6 0.57 0.84 s0.52 0.43 0.84 0.57 s0.66 0.21 1.02 0.21 s0.70334 -0.07 1.03 -0.21 s0.61 -0.33 0.85 -0.57 s0.43 -0.52 0.57 -0.84 s0.21 -0.66 0.21 -1.02 c0 -0.44 -0.08666 -0.80334 -0.26 -1.09 s-0.41334 -0.53666 -0.72 -0.75 c-0.14666 -0.10666 -0.31332 -0.20332 -0.49998 -0.28998 s-0.38 -0.17666 -0.58 -0.27 c-0.2 -0.08 -0.40666 -0.16 -0.62 -0.24 s-0.43334 -0.16 -0.66 -0.24 c-0.44 -0.16 -0.88334 -0.34 -1.33 -0.54 s-0.84666 -0.45 -1.2 -0.75 s-0.64334 -0.67334 -0.87 -1.12 s-0.34 -0.99666 -0.34 -1.65 c0 -0.61334 0.11666 -1.1867 0.35 -1.72 s0.55 -1 0.95 -1.4 s0.86666 -0.71666 1.4 -0.95 s1.1067 -0.35 1.72 -0.35 s1.19 0.11666 1.73 0.35 s1.01 0.55 1.41 0.95 s0.71666 0.86666 0.95 1.4 s0.35 1.1067 0.35 1.72 c0 0.24 -0.08666 0.44666 -0.26 0.62 s-0.38668 0.26 -0.64002 0.26 c-0.24 0 -0.44666 -0.08666 -0.62 -0.26 s-0.26 -0.38 -0.26 -0.62 c0 -0.36 -0.07 -0.70334 -0.21 -1.03 s-0.33 -0.61 -0.57 -0.85 s-0.52334 -0.43 -0.85 -0.57 s-0.67 -0.21 -1.03 -0.21 s-0.7 0.07 -1.02 0.21 s-0.6 0.33 -0.84 0.57 s-0.43 0.52334 -0.57 0.85 s-0.21 0.67 -0.21 1.03 c0 0.4 0.08334 0.73334 0.25 1 s0.40332 0.5 0.70998 0.7 c0.32 0.2 0.68 0.38 1.08 0.54 l0.64 0.24 l0.66 0.24 c0.44 0.16 0.88334 0.34334 1.33 0.55 s0.84666 0.46666 1.2 0.78 s0.64334 0.70334 0.87 1.17 s0.34 1.04 0.34 1.72 c0 0.61334 -0.11666 1.1867 -0.35 1.72 s-0.55 1 -0.95 1.4 s-0.87 0.71666 -1.41 0.95 s-1.1167 0.35 -1.73 0.35 z M362.64 15.74 c-0.17334 0.17334 -0.38 0.26 -0.62 0.26 l-3.38 0 l0 3.4 c0 0.24 -0.08666 0.44666 -0.26 0.62 s-0.38668 0.26 -0.64002 0.26 c-0.24 0 -0.44666 -0.08666 -0.62 -0.26 s-0.26 -0.38 -0.26 -0.62 l0 -3.4 l-3.38 0 c-0.25334 0 -0.46668 -0.08666 -0.64002 -0.26 s-0.26 -0.38 -0.26 -0.62 c0 -0.25334 0.08666 -0.46334 0.26 -0.63 s0.38668 -0.25 0.64002 -0.25 l3.38 0 l0 -3.4 c0 -0.24 0.08666 -0.44666 0.26 -0.62 s0.38 -0.26 0.62 -0.26 c0.25334 0 0.46668 0.08666 0.64002 0.26 s0.26 0.38 0.26 0.62 l0 3.4 l3.38 0 c0.25334 0 0.46334 0.08334 0.63 0.25 s0.25 0.37666 0.25 0.63 c0 0.24 -0.08666 0.44666 -0.26 0.62 z M409.58399999999995 20.22 c-0.10666 0.05334 -0.21992 0.08 -0.33992 0.08 c-0.17334 0 -0.33668 -0.04666 -0.49002 -0.14 s-0.26334 -0.22668 -0.33 -0.40002 l-1.58 -3.72 l-7.26 0 l-1.58 3.72 c-0.09334 0.22666 -0.25334 0.38666 -0.48 0.48 s-0.45332 0.08668 -0.67998 -0.01998 c-0.22666 -0.09334 -0.38666 -0.25334 -0.48 -0.48 s-0.08668 -0.45332 0.01998 -0.67998 l1.8 -4.26 l4.22 -9.88 c0.06666 -0.17334 0.17332 -0.30668 0.31998 -0.40002 s0.31332 -0.14 0.49998 -0.14 c0.17334 0 0.33334 0.04666 0.48 0.14 s0.25332 0.22668 0.31998 0.40002 c1.0133 2.3734 2.02 4.73 3.02 7.07 s2.0066 4.6966 3.02 7.07 c0.09334 0.22666 0.09334 0.45332 0 0.67998 s-0.25334 0.38666 -0.48 0.48 z M403.22399999999993 7.539999999999999 l-2.88 6.72 l5.74 0 z M431.35599999999994 6.279999999999999 l-3.24 0 l0 13.14 c0 0.24 -0.08666 0.44666 -0.26 0.62 s-0.38 0.26 -0.62 0.26 c-0.25334 0 -0.46668 -0.08666 -0.64002 -0.26 s-0.26 -0.38 -0.26 -0.62 l0 -13.14 l-3.24 0 c-0.24 0 -0.44666 -0.08334 -0.62 -0.25 s-0.26 -0.37666 -0.26 -0.63 c0 -0.24 0.08666 -0.44666 0.26 -0.62 s0.38 -0.26 0.62 -0.26 l8.26 0 c0.24 0 0.44666 0.08666 0.62 0.26 s0.26 0.38 0.26 0.62 c0 0.25334 -0.08666 0.46334 -0.26 0.63 s-0.38 0.25 -0.62 0.25 z M454.4479999999999 6.279999999999999 l-3.24 0 l0 13.14 c0 0.24 -0.08666 0.44666 -0.26 0.62 s-0.38 0.26 -0.62 0.26 c-0.25334 0 -0.46668 -0.08666 -0.64002 -0.26 s-0.26 -0.38 -0.26 -0.62 l0 -13.14 l-3.24 0 c-0.24 0 -0.44666 -0.08334 -0.62 -0.25 s-0.26 -0.37666 -0.26 -0.63 c0 -0.24 0.08666 -0.44666 0.26 -0.62 s0.38 -0.26 0.62 -0.26 l8.26 0 c0.24 0 0.44666 0.08666 0.62 0.26 s0.26 0.38 0.26 0.62 c0 0.25334 -0.08666 0.46334 -0.26 0.63 s-0.38 0.25 -0.62 0.25 z M470.8399999999999 20.3 c-0.25334 0 -0.46668 -0.08666 -0.64002 -0.26 s-0.26 -0.38 -0.26 -0.62 l0 -14.02 c0 -0.24 0.08666 -0.44666 0.26 -0.62 s0.38668 -0.26 0.64002 -0.26 c0.24 0 0.44666 0.08666 0.62 0.26 s0.26 0.38 0.26 0.62 l0 14.02 c0 0.24 -0.08666 0.44666 -0.26 0.62 s-0.38 0.26 -0.62 0.26 z M495.4719999999999 6.279999999999999 l-3.24 0 l0 13.14 c0 0.24 -0.08666 0.44666 -0.26 0.62 s-0.38 0.26 -0.62 0.26 c-0.25334 0 -0.46668 -0.08666 -0.64002 -0.26 s-0.26 -0.38 -0.26 -0.62 l0 -13.14 l-3.24 0 c-0.24 0 -0.44666 -0.08334 -0.62 -0.25 s-0.26 -0.37666 -0.26 -0.63 c0 -0.24 0.08666 -0.44666 0.26 -0.62 s0.38 -0.26 0.62 -0.26 l8.26 0 c0.24 0 0.44666 0.08666 0.62 0.26 s0.26 0.38 0.26 0.62 c0 0.25334 -0.08666 0.46334 -0.26 0.63 s-0.38 0.25 -0.62 0.25 z M517.0439999999999 20.3 c-0.84 0 -1.6266 -0.16004 -2.36 -0.48004 s-1.3767 -0.75334 -1.93 -1.3 s-0.99 -1.19 -1.31 -1.93 s-0.48 -1.53 -0.48 -2.37 l0 -8.82 c0 -0.24 0.08666 -0.44666 0.26 -0.62 s0.38668 -0.26 0.64002 -0.26 c0.24 0 0.44666 0.08666 0.62 0.26 s0.26 0.38 0.26 0.62 l0 8.82 c0 0.6 0.11334 1.16 0.34 1.68 s0.53332 0.97334 0.91998 1.36 s0.84332 0.69332 1.37 0.91998 s1.0833 0.34 1.67 0.34 c0.6 0 1.16 -0.11334 1.68 -0.34 s0.97666 -0.53332 1.37 -0.91998 s0.70334 -0.84332 0.93 -1.37 s0.34 -1.0833 0.34 -1.67 l0 -8.82 c0 -0.24 0.08666 -0.44666 0.26 -0.62 s0.38 -0.26 0.62 -0.26 c0.25334 0 0.46668 0.08666 0.64002 0.26 s0.26 0.38 0.26 0.62 l0 8.82 c0 0.84 -0.16 1.63 -0.48 2.37 s-0.75666 1.3833 -1.31 1.93 s-1.2 0.98 -1.94 1.3 s-1.53 0.48 -2.37 0.48 z M545.096 20.3 l-4.92 -0.000039062 c-0.16 0 -0.31334 -0.04666 -0.46 -0.14 s-0.25332 -0.21334 -0.31998 -0.36 c-0.12 -0.21334 -0.13334 -0.45334 -0.04 -0.72 l0 -13.68 c0 -0.24 0.08666 -0.44666 0.26 -0.62 s0.38668 -0.26 0.64002 -0.26 l4.82 0 c1.0533 0 2.0134 0.22666 2.88 0.68 s1.6067 1.0467 2.22 1.78 s1.0867 1.5667 1.42 2.5 s0.5 1.88 0.5 2.84 c0 1.1867 -0.20334 2.27 -0.61 3.25 s-0.94 1.82 -1.6 2.52 s-1.41 1.2433 -2.25 1.63 s-1.6867 0.58 -2.54 0.58 z M545.076 6.279999999999999 l-3.94 -0.000078126 l0 12.26 l3.96 0 c0.76 0 1.4567 -0.18334 2.09 -0.55 s1.1833 -0.84332 1.65 -1.43 s0.83 -1.2533 1.09 -2 s0.39 -1.4933 0.39 -2.24 c0 -0.76 -0.12666 -1.5033 -0.38 -2.23 s-0.61 -1.3733 -1.07 -1.94 s-1.0133 -1.02 -1.66 -1.36 s-1.3567 -0.51 -2.13 -0.51 z M575.588 20.3 l-6.88 -0.000019531 c-0.25334 0 -0.46668 -0.08666 -0.64002 -0.26 s-0.26 -0.38 -0.26 -0.62 l0 -0.04 l0 -0.04 l0 -13.94 c0 -0.24 0.08666 -0.44666 0.26 -0.62 s0.38668 -0.26 0.64002 -0.26 l6.88 0 c0.25334 0 0.46668 0.08666 0.64002 0.26 s0.26 0.38 0.26 0.62 c0 0.25334 -0.08666 0.46334 -0.26 0.63 s-0.38668 0.25 -0.64002 0.25 l-6 0 l0 5.1 l5.06 0 c0.24 0 0.44666 0.08334 0.62 0.25 s0.26 0.37666 0.26 0.63 c0 0.24 -0.08666 0.44666 -0.26 0.62 s-0.38 0.26 -0.62 0.26 l-5.06 0 l0 5.38 l6 0 c0.25334 0 0.46668 0.08666 0.64002 0.26 s0.26 0.38668 0.26 0.64002 c0 0.24 -0.08666 0.44666 -0.26 0.62 s-0.38668 0.26 -0.64002 0.26 z"></path></g>
			</g>
		</svg>
	